<svg xmlns="http://www.w3.org/2000/svg" xmlns:xlink="http://www.w3.org/1999/xlink" width="142" height="25" viewBox="0 0 142 25">
  <defs>
    <clipPath id="clip-path">
      <rect id="長方形_334" data-name="長方形 334" width="142" height="25" transform="translate(114 122)" fill="#e5e5e5"/>
    </clipPath>
    <linearGradient id="linear-gradient" x1="0.5" x2="0.5" y2="1" gradientUnits="objectBoundingBox">
      <stop offset="0" stop-color="#ff473e"/>
      <stop offset="1" stop-color="#ff4545"/>
    </linearGradient>
  </defs>
  <g id="logo" transform="translate(-114 -122)" clip-path="url(#clip-path)">
    <g id="logo-2" data-name="logo" transform="translate(-11 -1)">
      <g id="logo.png" transform="translate(159.783 123)">
        <path id="パス_16" data-name="パス 16" d="M158.392,37.49a.918.918,0,0,1-.9-.838l-.41-3.922a.967.967,0,0,1,.226-.73.888.888,0,0,1,.672-.312h5.732l-.349-3.341h-5.928a.915.915,0,0,1-.9-.838l-.36-3.442h-3.224l.337,3.24a.962.962,0,0,1-.225.729.886.886,0,0,1-.672.312h-6.548l.349,3.341h6.743a.918.918,0,0,1,.9.838l.41,3.922a.967.967,0,0,1-.226.73.888.888,0,0,1-.672.312H145.8l.349,3.341H153.9a.915.915,0,0,1,.9.838l.713,6.83h3.225l-.692-6.627a.964.964,0,0,1,.226-.729.884.884,0,0,1,.672-.312h6.735l-.349-3.341Z" transform="translate(-119.814 -24.066)"/>
        <path id="パス_17" data-name="パス 17" d="M135.116,39.308a1.292,1.292,0,0,1,.251-.936l.147-.2.088-.117c.092-.126.184-.252.274-.38l.022-.03c.1-.142.2-.286.3-.431l.035-.053c.084-.122.165-.244.247-.368.027-.041.053-.082.079-.123.066-.1.132-.2.2-.3.032-.049.062-.1.092-.147.06-.1.12-.192.178-.29l.092-.152c.06-.1.118-.2.177-.3.027-.048.055-.1.084-.143l.039-.068h0a29.358,29.358,0,0,0,1.635-3.319q.207-.5.4-1.01a4.025,4.025,0,0,0,.113-.95,3.926,3.926,0,0,0-2.112-3.488,3.554,3.554,0,0,0-1.578-.37h-12.81v3.356h13a.355.355,0,0,1,.347.363.383.383,0,0,1-.01.086.32.32,0,0,1-.037.094,26.15,26.15,0,0,1-1.72,3.6q-.486.842-1.03,1.641h0c-.464.683-.961,1.342-1.485,1.97-.025.031-.049.061-.075.091-.18.216-.366.43-.554.639l-.018.02c-.182.2-.366.4-.555.6l-.033.035q-.282.291-.573.575l-.022.022q-.3.29-.609.572h0q-.184.169-.372.331a24.442,24.442,0,0,1-5.746,3.74l-.055.025c-.117.055-.236.107-.354.159l-.1.044h0v3.578h0q.311-.119.62-.244c.045-.019.089-.039.135-.057.162-.067.325-.136.486-.207l.129-.058c.166-.074.33-.148.495-.225l.1-.047c.178-.084.355-.169.53-.258l.054-.026a27.47,27.47,0,0,0,5.1-3.326l.076-.064c.139-.115.276-.231.413-.348l.154-.135c.065-.057.132-.112.2-.17a1.164,1.164,0,0,1,1.507-.045l2.98,2.359.043.034.866.685.329.261,2.878,2.278.054.042.179.142h0V44h0l-4.811-3.85A1.271,1.271,0,0,1,135.116,39.308Z" transform="translate(-123.063 -23.886)"/>
        <path id="パス_18" data-name="パス 18" d="M189.849,41.166,184.358,39.1l-.332-.126a.62.62,0,0,1-.389-.481.64.64,0,0,1,.21-.591c.065-.057.129-.114.195-.172l.2-.177q.178-.16.352-.322c.057-.052.112-.1.167-.154q.241-.227.477-.461c.071-.068.139-.138.208-.208.095-.1.19-.191.284-.287l.217-.229c.091-.1.182-.193.271-.291.032-.035.065-.068.1-.1q.523-.577,1.018-1.182l.011-.011c.065-.079.129-.158.192-.24a3.877,3.877,0,0,0,.757-2.314,4.16,4.16,0,0,0-.029-.483,3.844,3.844,0,0,0-1.177-2.339,3.559,3.559,0,0,0-2.442-.977h-3.268V24.066h-3.21v3.889h-6.5V31.27h13.082a.343.343,0,0,1,.428.345.364.364,0,0,1-.049.184.356.356,0,0,1-.062.078,25.224,25.224,0,0,1-2.665,2.868c-.282.259-.57.509-.862.755-.054.045-.107.092-.162.137h0c-.515.425-1.057.836-1.605,1.218l0,0c-.161.112-.323.223-.486.329l0,0c-.36.238-.734.471-1.112.692h0q-.326.192-.659.371l-.025.015q-.323.175-.65.339l-.045.023c-.22.11-.441.217-.663.32l-.026.012c-.232.106-.465.21-.7.31h0a23.758,23.758,0,0,1-3.727,1.225c-.51.122-1.034.23-1.555.317v3.431l.026,0c.386-.059.77-.124,1.15-.2.128-.026.254-.051.379-.078h0c.222-.046.442-.1.663-.149l.1-.024c.215-.051.43-.106.646-.164l.085-.023c.224-.061.448-.124.67-.191h0q.7-.21,1.387-.458l.051-.018q.328-.119.654-.247l.055-.022q.329-.131.658-.269h0c.214-.091.427-.186.639-.282l.045-.019a.569.569,0,0,1,.242-.053.578.578,0,0,1,.328.1.632.632,0,0,1,.274.524V48.5h3.21V42.417a.637.637,0,0,1,.255-.513.59.59,0,0,1,.346-.114.578.578,0,0,1,.2.037l6.112,2.3,1.555.585V41.166Z" transform="translate(-116.345 -24.066)"/>
        <path id="パス_19" data-name="パス 19" d="M214.688,30.7a3.66,3.66,0,0,0-3.277-3.185H194.145V30.7h16.867l.048,0,.047,0a.457.457,0,0,1,.41.454.472.472,0,0,1-.03.163.461.461,0,0,1-.057.1,24.428,24.428,0,0,1-1.414,2.307l-.116.17c-.055.079-.111.16-.167.238l0,0-.1.134-.137.187c-.111.149-.225.295-.339.44-.052.066-.1.134-.153.2a24.69,24.69,0,0,1-3.337,3.437l-.035.03c-.083.07-.168.137-.252.205-.124.1-.247.205-.374.305-.1.08-.205.16-.309.239a.907.907,0,0,1-.525.17.9.9,0,0,1-.548-.186l-.089-.067-3.18-2.435-.025.023-.034.032-2.424,2.223h0l3.275,2.479.017.013.225.171,2.8,2.117.818.621,3.105,2.35.376.284h0l1.243-1.141,1.186-1.088h0l-1.186-.907-.614-.47-1.4-1.072a.9.9,0,0,1-.034-1.407c.022-.017.042-.036.063-.054q.209-.176.414-.359l.08-.071c.162-.143.322-.29.48-.438l.043-.041q.21-.2.415-.4l.108-.105q.223-.222.44-.445l0,0c.089-.091.176-.184.264-.277l.062-.065c.08-.086.16-.173.24-.261.026-.029.053-.058.079-.086.088-.1.176-.2.263-.3l.051-.058c.1-.112.195-.225.29-.338l.017-.02a27.831,27.831,0,0,0,2.809-3.985h0c.135-.232.267-.465.4-.7l0,0c.053-.1.107-.2.159-.3v0a3.616,3.616,0,0,0,.346-1.335v-.471h0C214.7,30.85,214.7,30.778,214.688,30.7Z" transform="translate(-112.871 -22.803)"/>
      </g>
      <path id="logomMark" d="M204.563,224.435h3.32c-.13.251-.265.5-.407.749a14.4,14.4,0,0,0-1.037,2.167h-4.574a5.044,5.044,0,0,1-5.038-5.038V208.476a5.044,5.044,0,0,1,5.038-5.038h6.018c-.128.251-.265.5-.405.75a14.259,14.259,0,0,0-1.038,2.167,10.941,10.941,0,0,0-.6,3.791,10.806,10.806,0,0,0,1.64,5.956,8,8,0,0,1,1.276,4.542c0,.314-.012.6-.034.875h-2.927a7.616,7.616,0,0,0,.045-.875,5.148,5.148,0,0,0-.909-3.125,13.653,13.653,0,0,1-2.008-7.374,14.478,14.478,0,0,1,.467-3.791h-1.521a2.124,2.124,0,0,0-2.121,2.121v13.837a2.125,2.125,0,0,0,2.121,2.122h2.7Zm16.144-16.13a5.015,5.015,0,0,0-5.033-4.867h-4.609a14.26,14.26,0,0,1-1.038,2.167c-.14.252-.277.5-.405.75h6.053a2.111,2.111,0,0,1,2.119,2.027v14.027a2.111,2.111,0,0,1-2.119,2.027h-1.556a14.493,14.493,0,0,0,.466-3.791,13.633,13.633,0,0,0-2.009-7.374,5.158,5.158,0,0,1-.907-3.125,7.569,7.569,0,0,1,.045-.875h-2.927c-.022.271-.034.561-.034.875a8,8,0,0,0,1.274,4.54,10.8,10.8,0,0,1,1.642,5.958,10.948,10.948,0,0,1-.6,3.791,14.273,14.273,0,0,1-1.038,2.167c-.14.252-.277.5-.405.749h6.053a5.015,5.015,0,0,0,5.033-4.867c0-.016,0-.032,0-.048V208.353C220.709,208.337,220.709,208.321,220.708,208.305Z" transform="translate(-71.828 -79.351)" fill="url(#linear-gradient)"/>
    </g>
  </g>
</svg>
