<svg xmlns="http://www.w3.org/2000/svg" width="146.971" height="167" viewBox="0 0 146.971 167"><defs><style>.a{fill:#fff;}</style></defs><g transform="translate(-114 -250)"><path class="a" d="M226.381,283.658h12.685c-.5.958-1.014,1.9-1.554,2.863a55,55,0,0,0-3.961,8.278H216.075a19.27,19.27,0,0,1-19.247-19.247V222.685a19.27,19.27,0,0,1,19.247-19.247h22.991c-.49.958-1.014,1.9-1.549,2.864a54.473,54.473,0,0,0-3.966,8.278,41.8,41.8,0,0,0-2.306,14.484c0,11.47,3.331,17.47,6.267,22.757,2.618,4.707,4.874,8.768,4.874,17.352,0,1.2-.046,2.306-.129,3.343H231.074a29.126,29.126,0,0,0,.171-3.343c0-5.7-1.087-7.654-3.471-11.938-3.237-5.832-7.671-13.815-7.671-28.171a55.317,55.317,0,0,1,1.783-14.484h-5.811a8.116,8.116,0,0,0-8.1,8.1v52.867a8.117,8.117,0,0,0,8.1,8.106h10.306Zm61.68-61.625a19.159,19.159,0,0,0-19.23-18.6H251.222a54.47,54.47,0,0,1-3.967,8.278c-.535.964-1.058,1.9-1.549,2.864h23.125a8.064,8.064,0,0,1,8.094,7.743v53.591a8.065,8.065,0,0,1-8.094,7.744h-5.944a55.371,55.371,0,0,0,1.782-14.485c0-14.361-4.434-22.344-7.676-28.171-2.379-4.284-3.465-6.245-3.465-11.938a28.912,28.912,0,0,1,.171-3.343H242.516c-.083,1.037-.13,2.144-.13,3.343,0,8.584,2.256,12.645,4.869,17.347,2.942,5.293,6.273,11.292,6.273,22.762a41.829,41.829,0,0,1-2.306,14.485,54.516,54.516,0,0,1-3.967,8.278c-.535.963-1.058,1.9-1.549,2.863h23.125a19.159,19.159,0,0,0,19.23-18.6c.006-.061.006-.123.006-.184v-53.8C288.067,222.156,288.067,222.1,288.061,222.033Z" transform="translate(-54.828 46.562)"/><g transform="translate(-55.359 52.902)"><g transform="translate(169.359 353.389)"><path class="a" d="M177.811,363.36a17.683,17.683,0,0,0-2.949-3.606,14.557,14.557,0,0,1-5.016,3.809c-.2.1-.358.072-.442-.1s-.036-.311.167-.43a13.536,13.536,0,0,0,6.127-7.261H171.04a.329.329,0,0,1,0-.657h5.685c.477.024.7.335.537.705a17.083,17.083,0,0,1-1.911,3.38,16.335,16.335,0,0,1,3.607,3.343.328.328,0,0,1-.072.514l-.573.394A.32.32,0,0,1,177.811,363.36Z" transform="translate(-169.359 -353.726)"/><path class="a" d="M186.409,363.981l-.477.036a.319.319,0,0,1-.4-.322l-.3-3.093H181.31a.311.311,0,1,1,0-.621h3.869l-.3-3.01h-3.034a.311.311,0,1,1,0-.621h2.974l-.179-1.779a.312.312,0,0,1,.334-.382l.478-.024a.333.333,0,0,1,.382.334l.179,1.851h3.547a.311.311,0,1,1,0,.621h-3.487l.3,3.01h3.75a.311.311,0,1,1,0,.621h-3.69l.3,3A.314.314,0,0,1,186.409,363.981Z" transform="translate(-169.359 -353.726)"/><path class="a" d="M202.232,356.541a12.5,12.5,0,0,1-4.156,4.371,13.753,13.753,0,0,1,1.445,1.7.317.317,0,0,1-.083.5l-.55.382a.315.315,0,0,1-.5-.12,12.623,12.623,0,0,0-3.5-3.988c-.179-.144-.227-.3-.108-.454a.341.341,0,0,1,.478-.1,8.868,8.868,0,0,1,2.185,1.541,10.031,10.031,0,0,0,3.034-3.881H193.24c-.239,0-.37-.12-.358-.335a.311.311,0,0,1,.358-.322h8.67C202.137,355.837,202.4,355.861,202.232,356.541Z" transform="translate(-169.512 -353.726)"/><path class="a" d="M208.167,363.4h-2.042v.442a.285.285,0,0,1-.322.323h-.514a.285.285,0,0,1-.322-.323v-8.98a.285.285,0,0,1,.322-.323h2.878a.286.286,0,0,1,.323.323v8.216A.285.285,0,0,1,208.167,363.4Zm-.812-8.216h-1.23v3.272h1.23Zm0,3.9h-1.23v3.69h1.23Zm7.679-3.714q0,.287-.323.287h-2.066v1.755h2.484a.286.286,0,0,1,.323.323.282.282,0,0,1-.323.31h-.812v1.505h.812a.285.285,0,0,1,.323.322c0,.191-.108.3-.323.3h-.812v2.711c0,1.349-.131,1.516-1.516,1.516-.2,0-.645-.035-1.3-.059a.311.311,0,0,1-.334-.323c-.012-.2.119-.31.334-.3.609.035,1,.047,1.17.047.442,0,.442-.1.442-.859v-2.735H209.23a.285.285,0,0,1-.322-.323c0-.191.107-.3.322-.3h3.881v-1.505h-4.06a.285.285,0,0,1-.323-.322.282.282,0,0,1,.323-.311h2.388v-1.755h-2.054a.285.285,0,0,1-.322-.323q0-.286.322-.286h2.054v-.956a.285.285,0,0,1,.323-.322h.561a.284.284,0,0,1,.322.322v.956h2.066A.285.285,0,0,1,215.034,355.371Zm-4.944,5.41a19.028,19.028,0,0,1,1.552,1.552.293.293,0,0,1-.024.454l-.227.215a.273.273,0,0,1-.453-.024c-.538-.621-1.027-1.134-1.457-1.552a.287.287,0,0,1-.012-.454l.167-.167A.3.3,0,0,1,210.09,360.781Z" transform="translate(-169.592 -353.726)"/><path class="a" d="M222.462,358.44h-3.273v5.637a.284.284,0,0,1-.322.322h-.549a.285.285,0,0,1-.323-.322v-9.458a.286.286,0,0,1,.323-.323h4.144a.285.285,0,0,1,.322.323v3.5A.284.284,0,0,1,222.462,358.44Zm-.848-3.558h-2.425v1.253h2.425Zm0,1.743h-2.425v1.3h2.425Zm3.534,6.843h-3.379v.322a.285.285,0,0,1-.322.323h-.5a.286.286,0,0,1-.323-.323v-4.06a.285.285,0,0,1,.323-.322h4.2a.285.285,0,0,1,.323.322v3.415A.286.286,0,0,1,225.148,363.468Zm-.823-3.511h-2.556v1.206h2.556Zm0,1.708h-2.556v1.277h2.556Zm2.221,2.639H225.9a.322.322,0,0,1-.346-.3c-.036-.215.083-.334.31-.334.251.012.394.012.537.012.562,0,.55.012.55-.776V358.44h-3.38a.284.284,0,0,1-.322-.322v-3.5a.285.285,0,0,1,.322-.323h4.252a.285.285,0,0,1,.322.323v8.264C228.146,364.125,227.979,364.3,226.546,364.3Zm.406-9.422H224.42v1.253h2.532Zm0,1.743H224.42v1.3h2.532Z" transform="translate(-169.677 -353.726)"/><path class="a" d="M233.4,354.977a18.681,18.681,0,0,0-.716,6.532,4.958,4.958,0,0,1,.585-1.707c.227-.43.824-.132.621.262a7.218,7.218,0,0,0-.573,1.517,3.119,3.119,0,0,0-.036,1.564.335.335,0,0,1-.227.454l-.287.108a.327.327,0,0,1-.465-.2c-1.111-2.711-.729-5.792-.012-8.778a.329.329,0,0,1,.43-.274l.417.1A.31.31,0,0,1,233.4,354.977Zm7.058,8.443a9.593,9.593,0,0,1-4.3-.322,2.079,2.079,0,0,1-1.517-1.792,2.862,2.862,0,0,1,.9-1.934.32.32,0,1,1,.513.382,2.348,2.348,0,0,0-.525,1.517,1.3,1.3,0,0,0,1,1.015,9.281,9.281,0,0,0,3.893.167.308.308,0,0,1,.382.334v.263A.332.332,0,0,1,240.458,363.42Zm-.287-7.177a11.16,11.16,0,0,0-2.651,1.564c-.334.251-.728-.107-.406-.406l1.015-.931a6.831,6.831,0,0,1-3.045-.573.282.282,0,1,1,.167-.538,11.462,11.462,0,0,0,4.813-.048.3.3,0,0,1,.394.323v.191A.413.413,0,0,1,240.171,356.243Z" transform="translate(-169.763 -353.726)"/><path class="a" d="M246.823,363.253H245v.442a.285.285,0,0,1-.323.322h-.5a.285.285,0,0,1-.323-.322v-8.837a.286.286,0,0,1,.323-.323h2.651a.285.285,0,0,1,.322.323v8.072A.285.285,0,0,1,246.823,363.253Zm-.789-8.073H245v3.272h1.038Zm0,3.9H245v3.547h1.038Zm7.7-3.272v3.654h.358a.286.286,0,0,1,.323.323.282.282,0,0,1-.323.31h-2.651a4.9,4.9,0,0,0,2.723,3.511.294.294,0,0,1,.155.43l-.071.143a.286.286,0,0,1-.418.156,6.167,6.167,0,0,1-3.069-3.249,6.475,6.475,0,0,1-3.4,3.249.3.3,0,0,1-.43-.156l-.059-.131a.291.291,0,0,1,.155-.43,5.1,5.1,0,0,0,3.045-3.523h-2.484a.284.284,0,0,1-.322-.322.281.281,0,0,1,.322-.311h.2v-3.654a.285.285,0,0,1,.323-.322h2.053V354.2a.286.286,0,0,1,.323-.323h.525a.286.286,0,0,1,.323.323v1.29h2.078A.284.284,0,0,1,253.737,355.813Zm-3.571.322H248.96v3.332l1.206.036Zm2.4,0h-1.218v3.356l1.218-.024Z" transform="translate(-169.847 -353.726)"/><path class="a" d="M266.814,354.726a.282.282,0,0,1-.323.311h-4.263v1.433h2.078a.284.284,0,0,1,.322.322v4.849a.284.284,0,0,1-.322.322H258.98a.285.285,0,0,1-.323-.322v-4.849a.285.285,0,0,1,.323-.322h2.078v-1.433h-4.264a.285.285,0,0,1-.322-.323c0-.191.107-.3.322-.3h9.7A.282.282,0,0,1,266.814,354.726Zm-.633,9.673h-.526a.284.284,0,0,1-.322-.322v-.323h-7.38v.323a.285.285,0,0,1-.323.322h-.525a.285.285,0,0,1-.323-.322v-6.915a.285.285,0,0,1,.323-.322h.525a.285.285,0,0,1,.323.322v5.983h7.38v-5.983a.285.285,0,0,1,.322-.322h.526a.285.285,0,0,1,.322.322v6.915A.284.284,0,0,1,266.181,364.4Zm-5.123-7.368h-1.29v1.851h1.29Zm0,2.377h-1.29v2.006h1.29Zm2.46-2.377h-1.29v1.851h1.29Zm0,2.377h-1.29v2.006h1.29Z" transform="translate(-169.929 -353.726)"/><path class="a" d="M278.911,359.049c-1.326.311-2.269.574-3.308.908a14.293,14.293,0,0,1,.155,1.851.346.346,0,0,1-.346.394h-.586c-.238,0-.358-.131-.346-.382.036-.657.048-1.087.036-1.469A3.763,3.763,0,0,0,273,361.569c-.6.908-.143,1.505.872,1.66a6.654,6.654,0,0,0,1.827,0c.526-.06,1.051-.155,1.732-.251.251-.036.382.084.394.335l.024.382a.347.347,0,0,1-.323.394,12.02,12.02,0,0,1-3.857.1,2.3,2.3,0,0,1-1.767-1.05,1.8,1.8,0,0,1,.418-2.043,5.492,5.492,0,0,1,2.089-1.5c-.071-.609-.3-1.087-.716-1.159-1.17-.179-2.341,1.147-3.26,2.4a.327.327,0,0,1-.5.1l-.334-.227a.305.305,0,0,1-.084-.5,31.136,31.136,0,0,0,2.735-4.037h-2.341a.311.311,0,1,1,0-.621h2.687c.263-.5.585-1.17.776-1.564a.329.329,0,0,1,.478-.167l.49.215a.3.3,0,0,1,.167.477c-.143.239-.346.6-.6,1.039h3.8a.311.311,0,1,1,0,.621h-4.155c-.347.6-.765,1.278-1.207,1.995a1.883,1.883,0,0,1,3.07,1.039c.919-.359,1.815-.681,3.26-1.111a.316.316,0,0,1,.442.251l.071.286A.319.319,0,0,1,278.911,359.049Z" transform="translate(-170.011 -353.726)"/><path class="a" d="M283.759,354.213l-.191.513h2.878a.285.285,0,0,1,.322.323q0,.286-.322.286h-1.505a8.944,8.944,0,0,1-.454,1.409h1.971a.285.285,0,0,1,.322.323c0,.167-.107.263-.322.263h-2.21a12.219,12.219,0,0,1-.812,1.421h1.051a8.779,8.779,0,0,0,.394-.86.318.318,0,0,1,.406-.215l.347.1a.275.275,0,0,1,.215.406q-.108.25-.287.573h.979a.285.285,0,0,1,.323.322c0,.167-.108.263-.323.263h-1.075v.979h.932a.285.285,0,0,1,.322.323c0,.107-.107.167-.322.167h-.932v.991h.932a.284.284,0,0,1,.322.322c0,.108-.107.168-.322.168h-.932v1.062h.98a.285.285,0,0,1,.322.323v-.06c.967-.537,1.135-1.421,1.23-2.663h-.669a.284.284,0,0,1-.322-.322v-6.007a.285.285,0,0,1,.322-.323h4.359a.286.286,0,0,1,.323.323v6.007a.285.285,0,0,1-.323.322h-1.027v2.377c0,.406.036.453.358.441s.347-.2.383-.346a2.554,2.554,0,0,0,.071-.6c.012-.167,0-.394.012-.693a.28.28,0,0,1,.347-.31l.429.06a.306.306,0,0,1,.3.358,8.879,8.879,0,0,1-.1,1.325c-.071.43-.047.4-.358.645a1.707,1.707,0,0,1-.764.167c-.179.012-.335.024-.442.024-.239,0-1.027,0-1.194-.167-.215-.191-.2-.239-.2-.573v-2.711h-.394c-.1,1.768-.633,3.045-2.651,3.38a.315.315,0,0,1-.394-.227l-.048-.143h-2.807v.155a.284.284,0,0,1-.322.322h-.442a.284.284,0,0,1-.322-.322v-3.786c-.06.06-.132.143-.227.227-.179.179-.359.143-.454-.084l-.107-.274a.387.387,0,0,1,.1-.442,9.808,9.808,0,0,0,1.684-2.424h-1.29a.285.285,0,0,1-.322-.323c0-.167.107-.263.322-.263h1.541a9.783,9.783,0,0,0,.453-1.409h-.585a6.192,6.192,0,0,1-.6.9.317.317,0,0,1-.442.108l-.286-.144a.274.274,0,0,1-.108-.442,9.661,9.661,0,0,0,.944-1.8.319.319,0,0,1,.394-.215l.394.084A.273.273,0,0,1,283.759,354.213Zm.6,5.123h-1.147v.979h1.147Zm0,1.469h-1.147v.991h1.147Zm0,1.481h-1.147v1.062h1.147Zm6.484-7.369h-2.711V356.3h2.711Zm0,1.935h-2.711v1.421h2.711Zm0,1.97h-2.711v1.505h2.711Z" transform="translate(-170.096 -353.726)"/><path class="a" d="M303.618,362.656a.306.306,0,0,1,.084.5l-.275.323a.313.313,0,0,1-.5.036,8.323,8.323,0,0,0-2.771-1.7,2.628,2.628,0,0,1-.37,1.29,2.893,2.893,0,0,1-2.9.9,2.183,2.183,0,0,1-1.457-.776,1.434,1.434,0,0,1,.036-1.732,3.063,3.063,0,0,1,2.663-.812,6.977,6.977,0,0,1,.871.1v-6.258a.322.322,0,0,1,.359-.358h.489a.317.317,0,0,1,.359.358v1.863h3.4a.311.311,0,1,1,0,.621h-3.4v4A12.588,12.588,0,0,1,303.618,362.656Zm-7.368-.705a.849.849,0,0,0,.024.812,1.019,1.019,0,0,0,.764.442,1.593,1.593,0,0,0,1.744-.621,2.622,2.622,0,0,0,.238-1.039c-.1-.012-.513-.071-.8-.1C297.575,361.39,296.608,361.342,296.25,361.951Z" transform="translate(-170.244 -353.726)"/><path class="a" d="M308.251,357.676a11.825,11.825,0,0,1,3.822-.884,2.707,2.707,0,0,1,2.687,1.577,3.728,3.728,0,0,1-.156,3.021c-.871,1.839-3.021,2.627-4.908,3a.323.323,0,0,1-.406-.2c-.036-.155.084-.31.287-.358,1.7-.43,3.368-1.254,3.869-2.83.334-1.039.43-2.544-.346-3.2a2.445,2.445,0,0,0-2.269-.119,19.152,19.152,0,0,0-2.245.86.361.361,0,0,1-.5-.2l-.06-.167A.368.368,0,0,1,308.251,357.676Zm5.016-1.875a7.3,7.3,0,0,1-3.439-1.218.326.326,0,0,1-.12-.466.322.322,0,0,1,.43-.1,8.6,8.6,0,0,0,3.2.871.37.37,0,0,1,.334.442l-.024.167A.331.331,0,0,1,313.267,355.8Z" transform="translate(-170.244 -353.726)"/></g><g transform="translate(171.637 308.098)"><path class="a" d="M227.154,327.289a1.344,1.344,0,0,1-1.336-1.2l-.609-5.606a1.342,1.342,0,0,1,1.335-1.489h8.53l-.52-4.777h-8.821a1.343,1.343,0,0,1-1.336-1.2l-.535-4.922h-4.8l.5,4.632a1.344,1.344,0,0,1-1.336,1.488h-9.743l.52,4.777h10.035a1.344,1.344,0,0,1,1.335,1.2l.61,5.607a1.345,1.345,0,0,1-1.336,1.489H208.417l.519,4.776h11.528a1.344,1.344,0,0,1,1.335,1.2l1.061,9.764h4.8l-1.031-9.474a1.345,1.345,0,0,1,1.336-1.489h10.023l-.519-4.776Z" transform="translate(-171.917 -308.098)"/><path class="a" d="M189.574,330.2a1.79,1.79,0,0,1,.373-1.334c.074-.093.146-.188.219-.282.044-.055.087-.111.13-.167.138-.179.274-.358.409-.54l.031-.041c.151-.2.3-.408.446-.614l.053-.075q.186-.261.367-.524l.119-.176q.147-.216.291-.433l.136-.208q.135-.205.266-.413c.047-.073.093-.145.138-.218.089-.141.176-.283.263-.425.042-.068.084-.136.125-.2.019-.032.039-.064.058-.1h0a41.025,41.025,0,0,0,2.432-4.724c.206-.474.4-.955.6-1.439a5.576,5.576,0,0,0,.167-1.352,5.275,5.275,0,0,0-.047-.714,5.488,5.488,0,0,0-5.445-4.776H171.637v4.776h19.347a.516.516,0,0,1,.517.515.5.5,0,0,1-.015.123.476.476,0,0,1-.056.136,36.443,36.443,0,0,1-2.558,5.12q-.723,1.2-1.534,2.335h0c-.691.972-1.429,1.91-2.209,2.8-.038.044-.074.088-.112.13q-.405.462-.825.909l-.027.029q-.406.431-.827.85l-.049.049c-.28.277-.564.551-.853.819l-.032.03q-.445.414-.9.814h0q-.274.238-.553.471a36.547,36.547,0,0,1-8.551,5.322l-.082.036c-.175.078-.351.152-.527.227l-.146.063h0v5.093h0c.309-.112.616-.229.922-.348.067-.026.133-.054.2-.081.242-.1.484-.193.723-.294l.193-.082c.247-.1.492-.211.736-.321.049-.021.1-.044.146-.066q.4-.18.789-.367l.08-.038a40.974,40.974,0,0,0,7.6-4.735c.038-.029.076-.06.113-.09.207-.163.411-.328.615-.495l.23-.191c.1-.082.195-.161.292-.243a1.791,1.791,0,0,1,2.24-.065l4.436,3.358.064.048,1.29.976.49.371,4.284,3.243.08.061.267.2h0v-6.06h0l-7.159-5.479A1.789,1.789,0,0,1,189.574,330.2Z" transform="translate(-171.637 -308.098)"/><path class="a" d="M277.111,332.543l-8.172-2.951-.493-.178a.9.9,0,0,1-.267-1.532c.1-.081.194-.165.291-.247s.2-.167.3-.252c.177-.152.351-.306.525-.461.083-.074.167-.146.249-.22q.359-.326.71-.657c.1-.1.206-.2.309-.3.141-.136.282-.273.421-.411.109-.108.217-.218.324-.327q.2-.207.4-.415c.048-.05.1-.1.143-.148q.781-.824,1.517-1.69a.124.124,0,0,0,.017-.016c.1-.114.191-.227.285-.342a5.4,5.4,0,0,0,1.125-3.309,5.578,5.578,0,0,0-.043-.69,5.428,5.428,0,0,0-5.386-4.739H264.5V308.1h-4.776v5.561h-9.67V318.4h19.466a.519.519,0,0,1,.256,0,.51.51,0,0,1,.309.757.528.528,0,0,1-.093.112,36.659,36.659,0,0,1-3.966,4.1c-.419.37-.847.728-1.282,1.078-.081.065-.16.132-.241.2l0,0c-.766.608-1.571,1.194-2.388,1.74l-.007,0c-.238.161-.48.318-.723.472l0,0c-.535.34-1.092.673-1.655.989h0q-.484.273-.979.531l-.038.02q-.48.25-.967.486l-.066.032q-.491.237-.987.458l-.039.017q-.518.23-1.043.444h0a36.362,36.362,0,0,1-5.545,1.753c-.759.175-1.538.327-2.315.452v4.9l.037-.006q.862-.125,1.712-.284c.191-.036.379-.073.566-.111h0c.33-.066.658-.138.986-.213l.146-.033c.321-.074.641-.153.96-.235l.127-.033q.5-.131,1-.272h0q1.042-.3,2.064-.655l.075-.026q.489-.17.974-.352l.082-.032q.492-.186.979-.384h0q.477-.2.95-.4l.066-.028a.9.9,0,0,1,1.257.82v8.328H264.5v-8.7a.9.9,0,0,1,1.2-.842l9.094,3.283,2.315.836v-5.066Z" transform="translate(-172.216 -308.098)"/><path class="a" d="M317.185,318.426a5.441,5.441,0,0,0-4.876-4.74H286.614v4.74h25.1c.024,0,.046,0,.07,0s.046,0,.07,0a.679.679,0,0,1,.609.676.692.692,0,0,1-.044.242.683.683,0,0,1-.084.155,36.573,36.573,0,0,1-2.105,3.433c-.058.084-.115.168-.173.251-.083.119-.165.239-.25.356l0,0c-.048.067-.1.133-.146.2l-.2.277c-.165.221-.336.438-.505.655-.077.1-.151.2-.229.3a36.646,36.646,0,0,1-4.965,5.114l-.051.045c-.124.1-.251.2-.376.307-.185.151-.368.305-.556.453-.152.121-.306.239-.46.356a1.34,1.34,0,0,1-1.6-.024l-.132-.1-4.733-3.623-.037.035-.051.047-3.606,3.307h0l4.873,3.69.026.02.335.253L301.558,338l1.218.922,4.621,3.5.559.422h0l1.851-1.7,1.764-1.618h0l-1.764-1.349-.913-.7-2.084-1.6a1.344,1.344,0,0,1-.05-2.093l.093-.08q.311-.264.617-.534l.119-.105q.361-.322.716-.653l.065-.061q.311-.293.616-.591l.161-.157q.332-.328.655-.661l.005-.005c.132-.136.262-.274.393-.412.03-.033.061-.064.092-.1.12-.128.239-.259.357-.389.04-.043.08-.085.119-.128q.2-.219.391-.44l.076-.085q.219-.251.433-.5l.025-.029a41.411,41.411,0,0,0,4.179-5.929h0c.2-.345.4-.692.588-1.043l0-.006q.118-.219.236-.441v0a5.389,5.389,0,0,0,.515-1.986v-.7h0Q317.206,318.587,317.185,318.426Z" transform="translate(-172.521 -308.098)"/></g></g></g></svg>